<?xml version="1.0" standalone="no"?>
<!DOCTYPE svg PUBLIC "-//W3C//DTD SVG 20010904//EN"
 "http://www.w3.org/TR/2001/REC-SVG-20010904/DTD/svg10.dtd">
<svg version="1.0" xmlns="http://www.w3.org/2000/svg"
 width="336.000000pt" height="336.000000pt" viewBox="0 0 336.000000 336.000000"
 preserveAspectRatio="xMidYMid meet">
<metadata>
Created by potrace 1.11, written by Peter Selinger 2001-2013
</metadata>
<g transform="translate(0.000000,336.000000) scale(0.100000,-0.100000)"
fill="#000000" stroke="none">
<path d="M1477 3350 c-85 -15 -117 -64 -117 -180 0 -70 -13 -113 -47 -152 -22
-24 -294 -138 -331 -138 -49 0 -76 15 -147 79 -58 53 -72 61 -107 61 -21 0
-51 -6 -66 -14 -15 -8 -96 -86 -180 -175 -150 -159 -152 -161 -152 -206 0 -42
5 -51 60 -110 100 -108 103 -137 25 -326 -74 -183 -106 -209 -256 -209 -75 0
-112 -20 -134 -74 -20 -47 -28 -237 -16 -360 16 -164 37 -185 190 -195 140
-10 151 -20 224 -194 80 -189 78 -221 -18 -325 -63 -68 -77 -110 -52 -158 8
-16 87 -100 175 -186 l160 -158 50 0 c49 0 54 3 115 60 104 97 136 100 299 35
196 -78 210 -93 219 -230 8 -113 20 -139 78 -167 43 -21 60 -22 231 -22 286 0
311 14 321 173 8 111 24 152 72 181 53 32 273 120 302 120 43 0 92 -26 148
-79 111 -105 130 -99 325 93 85 83 160 163 168 178 8 15 14 45 14 67 0 35 -7
48 -60 104 -100 107 -102 138 -25 322 74 177 108 205 253 205 78 0 114 17 138
67 17 34 19 62 19 248 0 229 -4 249 -57 289 -22 16 -48 21 -120 24 -100 4
-142 21 -172 67 -9 13 -38 79 -66 146 -61 148 -65 196 -21 255 15 21 41 50 56
64 37 34 55 72 55 116 0 35 -11 48 -173 211 l-173 173 -47 0 c-44 0 -52 -4
-112 -60 -108 -100 -138 -103 -325 -25 -73 30 -142 63 -153 72 -36 33 -51 77
-57 171 -6 85 -9 95 -36 122 -20 21 -45 33 -83 40 -62 12 -323 11 -394 0z
m443 -810 c298 -86 537 -325 620 -620 27 -93 37 -276 21 -378 -47 -301 -267
-576 -549 -686 -165 -65 -387 -80 -547 -37 -109 28 -249 99 -339 171 -234 186
-364 501 -327 792 27 211 109 376 261 528 132 132 271 208 450 246 97 20 314
12 410 -16z"/>
</g>
</svg>
